<svg width="159" height="33" viewBox="0 0 159 33" fill="none" xmlns="http://www.w3.org/2000/svg">
<rect x="1.8" y="1.8" width="29.7" height="28.8" rx="7.2" stroke="white" stroke-width="3.6"/>
<rect x="15.3" y="1.8" width="15.8143" height="15.3" rx="7.2" stroke="white" stroke-width="3.6"/>
<path d="M42.9028 24V6.46723H45.9585V20.9443H53.2597V24H42.9028ZM63.0342 24.3256C61.8486 24.3256 60.734 24.0918 59.6904 23.6243C58.6468 23.1484 57.7284 22.493 56.9353 21.6581C56.1421 20.8232 55.5201 19.8589 55.0693 18.7652C54.6184 17.6632 54.393 16.486 54.393 15.2336C54.393 13.9813 54.6184 12.8083 55.0693 11.7145C55.5201 10.6125 56.1421 9.644 56.9353 8.80911C57.7284 7.97422 58.6468 7.323 59.6904 6.85546C60.734 6.37957 61.8486 6.14162 63.0342 6.14162C64.2281 6.14162 65.3468 6.37957 66.3904 6.85546C67.4341 7.323 68.3524 7.97422 69.1456 8.80911C69.9387 9.644 70.5566 10.6125 70.9991 11.7145C71.4499 12.8083 71.6753 13.9813 71.6753 15.2336C71.6753 16.486 71.4499 17.6632 70.9991 18.7652C70.5566 19.8589 69.9387 20.8232 69.1456 21.6581C68.3524 22.493 67.4341 23.1484 66.3904 23.6243C65.3468 24.0918 64.2281 24.3256 63.0342 24.3256ZM63.0342 21.2699C63.8023 21.2699 64.5245 21.1113 65.2007 20.794C65.877 20.4767 66.4698 20.0426 66.979 19.4916C67.4967 18.9322 67.8974 18.2893 68.1813 17.563C68.4735 16.8366 68.6196 16.0602 68.6196 15.2336C68.6196 14.4071 68.4735 13.6306 68.1813 12.9043C67.8891 12.1696 67.4842 11.5267 66.9665 10.9757C66.4572 10.4246 65.8645 9.99048 65.1882 9.67323C64.5203 9.35597 63.8023 9.19734 63.0342 9.19734C62.2661 9.19734 61.5439 9.35597 60.8676 9.67323C60.1914 9.99048 59.5944 10.4288 59.0768 10.9882C58.5675 11.5392 58.1667 12.1779 57.8745 12.9043C57.5907 13.6306 57.4487 14.4071 57.4487 15.2336C57.4487 16.0685 57.5948 16.8491 57.8871 17.5755C58.1793 18.3019 58.58 18.9447 59.0893 19.5041C59.6069 20.0551 60.1997 20.4893 60.8676 20.8065C61.5439 21.1154 62.2661 21.2699 63.0342 21.2699ZM82.3382 24.3256C81.1193 24.3256 79.9838 24.0877 78.9319 23.6118C77.8882 23.1359 76.9782 22.4805 76.2018 21.6456C75.4253 20.8024 74.8158 19.8339 74.3733 18.7402C73.9392 17.6381 73.7221 16.4609 73.7221 15.2086C73.7221 13.8894 73.9559 12.6788 74.4234 11.5768C74.8993 10.4747 75.5464 9.51877 76.3646 8.70892C77.1828 7.89908 78.1095 7.27291 79.1447 6.83041C80.1884 6.38792 81.2737 6.16667 82.4008 6.16667C83.6615 6.16667 84.8846 6.46306 86.0702 7.05583C87.2641 7.64026 88.3161 8.54612 89.2261 9.77341L86.496 11.2387C85.9366 10.554 85.2937 10.0448 84.5674 9.7108C83.8494 9.36849 83.1147 9.19734 82.3633 9.19734C81.6286 9.19734 80.9231 9.34762 80.2468 9.64818C79.5789 9.94874 78.9819 10.3745 78.456 10.9256C77.9383 11.4682 77.5292 12.1111 77.2287 12.8542C76.9281 13.5889 76.7778 14.3945 76.7778 15.2712C76.7778 16.0977 76.9239 16.8784 77.2161 17.6131C77.5084 18.3394 77.9091 18.9781 78.4184 19.5291C78.936 20.0718 79.533 20.4976 80.2092 20.8065C80.8855 21.1154 81.6119 21.2699 82.3883 21.2699C82.9059 21.2699 83.4111 21.1906 83.9036 21.032C84.4046 20.865 84.8721 20.627 85.3063 20.3181C85.7488 20.0092 86.1412 19.6335 86.4835 19.191C86.8341 18.7485 87.1263 18.2476 87.3601 17.6882H84.1666V15.0207H90.9543C90.9877 16.2981 90.7873 17.4962 90.3532 18.6149C89.9191 19.7337 89.3054 20.723 88.5123 21.583C87.7191 22.4429 86.7966 23.115 85.7446 23.5993C84.6926 24.0835 83.5572 24.3256 82.3382 24.3256ZM101.668 24.3256C100.482 24.3256 99.3678 24.0918 98.3241 23.6243C97.2805 23.1484 96.3621 22.493 95.569 21.6581C94.7759 20.8232 94.1539 19.8589 93.703 18.7652C93.2522 17.6632 93.0267 16.486 93.0267 15.2336C93.0267 13.9813 93.2522 12.8083 93.703 11.7145C94.1539 10.6125 94.7759 9.644 95.569 8.80911C96.3621 7.97422 97.2805 7.323 98.3241 6.85546C99.3678 6.37957 100.482 6.14162 101.668 6.14162C102.862 6.14162 103.981 6.37957 105.024 6.85546C106.068 7.323 106.986 7.97422 107.779 8.80911C108.572 9.644 109.19 10.6125 109.633 11.7145C110.084 12.8083 110.309 13.9813 110.309 15.2336C110.309 16.486 110.084 17.6632 109.633 18.7652C109.19 19.8589 108.572 20.8232 107.779 21.6581C106.986 22.493 106.068 23.1484 105.024 23.6243C103.981 24.0918 102.862 24.3256 101.668 24.3256ZM101.668 21.2699C102.436 21.2699 103.158 21.1113 103.834 20.794C104.511 20.4767 105.103 20.0426 105.613 19.4916C106.13 18.9322 106.531 18.2893 106.815 17.563C107.107 16.8366 107.253 16.0602 107.253 15.2336C107.253 14.4071 107.107 13.6306 106.815 12.9043C106.523 12.1696 106.118 11.5267 105.6 10.9757C105.091 10.4246 104.498 9.99048 103.822 9.67323C103.154 9.35597 102.436 9.19734 101.668 9.19734C100.9 9.19734 100.178 9.35597 99.5013 9.67323C98.8251 9.99048 98.2281 10.4288 97.7105 10.9882C97.2012 11.5392 96.8005 12.1779 96.5083 12.9043C96.2244 13.6306 96.0825 14.4071 96.0825 15.2336C96.0825 16.0685 96.2286 16.8491 96.5208 17.5755C96.813 18.3019 97.2137 18.9447 97.723 19.5041C98.2407 20.0551 98.8334 20.4893 99.5013 20.8065C100.178 21.1154 100.9 21.2699 101.668 21.2699Z" fill="white"/>
</svg>
